<svg id="Layer_1" data-name="Layer 1" xmlns="http://www.w3.org/2000/svg" viewBox="0 0 44.34 29"><defs><style>.cls-1{fill:#fff;}.cls-2{fill:#d8d8d8;}</style></defs><title>icon</title><path class="cls-1" d="M3,30.5A2.5,2.5,0,0,1,.5,28V5A2.5,2.5,0,0,1,3,2.5H37A2.5,2.5,0,0,1,39.5,5v6.52l4.18,4.81L39.5,21.14V28A2.5,2.5,0,0,1,37,30.5Z" transform="translate(0 -2)"/><path class="cls-2" d="M37,3a2,2,0,0,1,2,2v6.7l.24.29L43,16.33l-3.78,4.34L39,21v7a2,2,0,0,1-2,2H3a2,2,0,0,1-2-2V5A2,2,0,0,1,3,3H37m0-1H3A3,3,0,0,0,0,5V28a3,3,0,0,0,3,3H37a3,3,0,0,0,3-3V21.33l4.34-5-4.34-5V5a3,3,0,0,0-3-3Z" transform="translate(0 -2)"/></svg>