<svg id="Layer_1" data-name="Layer 1" xmlns="http://www.w3.org/2000/svg" viewBox="0 0 16 17"><defs><style>.cls-1{fill:none;stroke:#262424;stroke-miterlimit:10;}.cls-1,.cls-2{fill-rule:evenodd;}.cls-2{fill:#262424;}</style></defs><title>3</title><path class="cls-1" d="M24.5,22.5h15v16h-15Z" transform="translate(-24 -22)"/><path class="cls-2" d="M39.06,29V28h-2V23h-1v5h-2V23h-1v5h-2V23h-1v5h-2V23h-1v5h-3v1h3v4h-3v1h3v4h1V34h2v4h1V34h2v4h1V34h2v4h1V34h2V33h-2V29Zm-11,4V29h2v4Zm3,0V29h2v4Zm5,0h-2V29h2Z" transform="translate(-24 -22)"/></svg>