<svg
        xmlns="http://www.w3.org/2000/svg"
        xmlns:xlink="http://www.w3.org/1999/xlink"
        width="13px" height="12px">
    <path fill-rule="evenodd"  fill="rgb(236, 237, 241)"
          d="M12.981,4.557 C12.937,4.423 12.817,4.326 12.674,4.306 L8.644,3.739 L6.842,0.206 C6.778,0.079 6.645,-0.000 6.500,-0.000 C6.355,-0.000 6.223,0.079 6.159,0.206 L4.357,3.739 L0.327,4.306 C0.183,4.326 0.064,4.423 0.019,4.556 C-0.025,4.690 0.012,4.837 0.116,4.934 L3.032,7.685 L2.343,11.569 C2.319,11.708 2.378,11.847 2.495,11.930 C2.561,11.976 2.640,12.000 2.719,12.000 C2.779,12.000 2.840,11.986 2.896,11.958 L6.500,10.124 L10.105,11.958 C10.233,12.023 10.389,12.012 10.506,11.930 C10.623,11.847 10.682,11.708 10.657,11.569 L9.969,7.685 L12.885,4.934 C12.989,4.837 13.026,4.690 12.981,4.557 Z"/>
</svg>